<svg width="1024" height="1024" viewBox="0 0 1024 1024" fill="none" xmlns="http://www.w3.org/2000/svg">
  <defs>
    <linearGradient id="glowGrad" x1="300" y1="280" x2="760" y2="740" gradientUnits="userSpaceOnUse">
      <stop offset="0%" stop-color="#A78BFA"/>
      <stop offset="100%" stop-color="#6366F1"/>
    </linearGradient>
    <filter id="outerGlow" x="120" y="120" width="784" height="784" filterUnits="userSpaceOnUse">
      <feGaussianBlur stdDeviation="36" result="blur1"/>
      <feColorMatrix in="blur1" type="matrix" values="1 0 0 0 0  0 1 0 0 0  0 0 1 0 0  0 0 0 1 0" result="colored"/>
    </filter>
    <filter id="softGlow" x="100" y="100" width="824" height="824" filterUnits="userSpaceOnUse">
      <feGaussianBlur in="SourceGraphic" stdDeviation="22" result="blur"/>
    </filter>
  </defs>
  <rect width="1024" height="1024" fill="#0B0B0F"/>
  <g>
    <path d="M 704.26 353.00 Q 745.83 377.00 745.83 425.00 L 745.83 599.00 Q 745.83 647.00 704.26 671.00 L 553.57 758.00 Q 512.00 782.00 470.43 758.00 L 319.74 671.00 Q 278.17 647.00 278.17 599.00 L 278.17 425.00 Q 278.17 377.00 319.74 353.00 L 470.43 266.00 Q 512.00 242.00 553.57 266.00 Z" fill="url(#glowGrad)" filter="url(#softGlow)" opacity="0.90"/>
    <path d="M 704.26 353.00 Q 745.83 377.00 745.83 425.00 L 745.83 599.00 Q 745.83 647.00 704.26 671.00 L 553.57 758.00 Q 512.00 782.00 470.43 758.00 L 319.74 671.00 Q 278.17 647.00 278.17 599.00 L 278.17 425.00 Q 278.17 377.00 319.74 353.00 L 470.43 266.00 Q 512.00 242.00 553.57 266.00 Z" fill="#05050A"/>
    <polygon points="309.99,326.10 461.54,238.60 564.04,416.14 698.27,338.64 768.27,459.88 634.04,537.38 726.54,697.59 574.99,785.09" fill="#FFFFFF"/>
  </g>
</svg>